<?xml version="1.0" standalone="no"?>
<!DOCTYPE svg PUBLIC "-//W3C//DTD SVG 20010904//EN"
 "http://www.w3.org/TR/2001/REC-SVG-20010904/DTD/svg10.dtd">
<svg version="1.0" xmlns="http://www.w3.org/2000/svg"
 width="2000.000000pt" height="1247.000000pt" viewBox="0 0 2000.000000 1247.000000"
 preserveAspectRatio="xMidYMid meet">

<g transform="translate(0.000000,1247.000000) scale(0.100000,-0.100000)"
fill="#000000" stroke="none">
<path d="M2355 8224 c-132 -18 -189 -30 -250 -51 -260 -93 -428 -303 -507
-632 -11 -48 -46 -297 -78 -554 -32 -258 -60 -471 -63 -473 -9 -9 -407 -118
-584 -160 l-163 -39 0 -192 c0 -150 3 -191 13 -188 6 2 111 29 232 59 121 30
274 71 340 90 66 19 121 33 123 32 1 -2 -13 -147 -33 -322 -19 -175 -35 -323
-35 -329 0 -6 -58 -10 -163 -11 -149 0 -169 -3 -245 -28 -150 -49 -281 -159
-356 -295 -62 -115 -85 -325 -51 -470 41 -172 182 -317 374 -383 93 -32 325
-32 446 0 192 52 361 172 466 331 l15 24 90 -70 c169 -133 344 -236 484 -283
38 -13 102 -24 156 -27 194 -12 374 55 524 194 67 63 84 74 91 61 40 -72 128
-148 224 -194 99 -47 196 -66 350 -66 260 -2 439 75 623 265 l73 76 82 -82
c87 -87 190 -150 322 -195 215 -73 508 -80 784 -20 414 89 749 345 921 703
127 266 196 657 160 910 -35 240 -136 442 -310 615 -199 200 -418 277 -709
250 -183 -17 -319 -57 -444 -133 -26 -16 -50 -28 -52 -26 -2 2 37 318 86 702
100 778 99 750 31 818 -75 74 -255 109 -458 90 -60 -6 -126 -15 -146 -21 -33
-10 -37 -15 -43 -53 -3 -23 -33 -283 -66 -577 -82 -734 -140 -1226 -205 -1745
-64 -512 -84 -695 -84 -786 0 -55 -5 -72 -31 -113 -41 -66 -126 -149 -180
-176 -67 -35 -171 -38 -228 -8 -63 32 -79 60 -92 155 -11 72 -9 98 10 215 12
73 53 381 92 683 38 303 81 635 94 739 14 103 23 192 20 196 -10 16 -143 33
-245 33 -207 -1 -391 -66 -461 -163 -15 -21 -33 -150 -99 -720 -78 -681 -81
-697 -116 -795 -20 -55 -45 -116 -55 -136 -27 -55 -138 -178 -184 -204 -50
-30 -162 -48 -237 -40 -107 13 -237 95 -485 309 -107 91 -113 98 -112 134 0
20 35 309 77 642 l78 605 109 58 c205 109 359 219 491 351 67 67 140 150 164
185 82 123 142 264 171 406 18 89 16 296 -5 379 -52 214 -209 369 -429 426
-73 18 -252 32 -312 24z m294 -483 c57 -29 83 -91 83 -195 0 -112 -14 -171
-69 -286 -41 -85 -57 -106 -157 -205 -101 -100 -268 -226 -282 -213 -9 9 64
549 86 632 63 245 190 345 339 267z m3078 -1463 c106 -39 191 -148 243 -313
28 -87 39 -332 21 -471 -56 -436 -272 -741 -556 -784 -139 -22 -268 12 -345
89 -55 55 -80 119 -80 205 0 67 34 381 79 724 32 249 44 284 137 403 123 156
320 214 501 147z m-4474 -1244 l48 -16 -7 -42 c-31 -191 -123 -291 -248 -271
-83 14 -129 55 -140 125 -14 87 44 184 129 216 49 18 149 12 218 -12z"/>
<path d="M18794 8221 c-281 -45 -493 -277 -511 -560 -17 -284 162 -534 442
-617 73 -21 217 -24 295 -5 210 50 390 228 444 438 9 34 16 100 16 148 0 48
-7 114 -16 148 -51 196 -206 362 -395 422 -86 27 -199 38 -275 26z m267 -75
c171 -60 308 -208 354 -383 8 -31 15 -94 15 -138 0 -157 -51 -279 -164 -390
-103 -103 -247 -165 -381 -165 -135 0 -294 68 -394 169 -242 242 -203 651 79
840 149 99 328 123 491 67z"/>
<path d="M18783 7849 c-52 -25 -76 -61 -77 -114 -2 -73 46 -117 158 -144 103
-25 133 -60 92 -107 -17 -21 -31 -26 -68 -26 -56 0 -86 15 -98 48 -8 21 -16
24 -56 24 -46 0 -46 0 -41 -30 17 -81 80 -121 192 -121 124 0 185 47 185 142
0 79 -42 112 -192 154 -61 16 -84 40 -73 75 19 59 165 53 165 -7 0 -9 15 -13
51 -13 48 0 50 1 43 23 -15 50 -36 78 -74 97 -54 28 -150 27 -207 -1z"/>
<path d="M3669 8207 c-147 -42 -266 -180 -287 -335 -19 -135 21 -256 112 -348
164 -163 420 -160 583 8 29 29 65 80 80 113 25 54 28 71 28 165 0 97 -2 110
-32 172 -41 88 -113 160 -200 201 -56 26 -82 32 -153 34 -48 2 -105 -3 -131
-10z"/>
<path d="M14216 8200 c-113 -40 -190 -112 -243 -226 -25 -53 -28 -70 -28 -164
0 -97 2 -110 31 -171 19 -39 52 -85 84 -117 235 -231 631 -105 691 221 32 173
-66 361 -230 439 -88 42 -215 49 -305 18z"/>
<path d="M7463 6761 c-82 -13 -203 -42 -203 -48 0 -4 -41 -360 -91 -792 -100
-860 -108 -986 -74 -1145 75 -355 280 -527 628 -526 234 1 426 76 572 225 148
150 216 364 202 635 -17 331 -176 617 -496 892 l-65 55 48 76 c98 159 229 224
369 183 101 -29 141 -103 135 -249 l-3 -80 75 6 c175 14 307 95 377 230 35 69
44 199 19 279 -36 111 -129 199 -256 239 -90 29 -269 36 -370 15 -109 -23
-223 -83 -309 -162 -62 -58 -71 -63 -71 -42 0 81 -60 165 -138 193 -54 20
-263 29 -349 16z m564 -1267 c128 -188 169 -373 128 -568 -26 -121 -76 -183
-168 -206 -126 -32 -227 53 -227 192 0 29 20 213 45 408 25 195 45 360 45 365
1 16 134 -127 177 -191z"/>
<path d="M10200 6753 c-270 -41 -523 -174 -736 -387 -207 -207 -333 -439 -379
-701 -18 -105 -21 -334 -5 -445 37 -263 151 -498 322 -668 88 -87 149 -132
248 -182 177 -89 360 -125 605 -117 235 7 417 47 635 139 253 107 454 253 691
502 l56 59 6 -74 c22 -260 151 -483 327 -567 222 -105 567 -75 777 69 226 155
321 375 310 714 -4 123 -9 166 -31 240 -35 120 -112 274 -188 376 -62 85 -204
233 -291 305 l-48 39 38 64 c83 140 182 206 309 206 93 -1 151 -33 185 -102
20 -40 23 -63 22 -140 l-1 -93 37 0 c63 0 153 20 216 49 165 76 255 239 225
409 -37 216 -226 333 -514 319 -183 -9 -318 -64 -442 -182 -32 -30 -59 -55
-60 -55 -1 0 -4 22 -6 50 -7 71 -44 122 -114 156 -96 47 -290 46 -500 -2 l-70
-17 -63 -555 c-62 -540 -65 -558 -93 -605 -201 -341 -503 -621 -813 -754 -192
-82 -430 -114 -588 -79 -231 52 -395 216 -458 461 -43 169 -36 441 17 624 71
243 227 456 391 534 64 30 75 32 178 32 107 0 112 -1 174 -35 80 -43 115 -93
131 -190 26 -155 -36 -323 -177 -480 -82 -91 -227 -172 -385 -215 -38 -10 -68
-21 -68 -24 1 -19 68 -283 73 -287 3 -4 61 6 129 21 452 101 800 304 948 555
103 173 134 407 79 585 -72 233 -338 413 -674 454 -121 15 -309 12 -425 -6z
m2287 -1129 c121 -136 189 -252 224 -380 18 -66 21 -96 16 -198 -5 -148 -25
-213 -82 -272 -31 -33 -52 -44 -95 -54 -111 -24 -197 27 -220 131 -11 50 -8
92 36 447 26 216 51 392 55 392 4 0 34 -30 66 -66z"/>
<path d="M14223 6759 c-82 -10 -176 -36 -242 -67 -60 -28 -128 -90 -135 -124
-3 -13 -47 -378 -97 -813 -98 -845 -106 -955 -74 -1075 68 -260 248 -400 555
-430 304 -31 567 77 757 310 l57 70 73 -75 c86 -88 153 -139 244 -189 249
-136 601 -154 841 -43 106 49 160 87 255 180 45 45 84 79 86 76 2 -2 16 -26
31 -52 86 -150 254 -242 489 -267 201 -22 360 20 542 143 194 131 332 333 445
652 l30 88 -25 55 c-39 86 -164 248 -178 231 -2 -2 -20 -53 -41 -114 -126
-374 -332 -610 -516 -593 -108 11 -144 73 -142 249 1 140 15 257 97 864 115
847 119 878 98 892 -32 24 -88 35 -214 40 -144 6 -235 -9 -333 -55 l-58 -27
-82 26 c-142 47 -277 62 -476 56 -426 -14 -727 -148 -1004 -446 -241 -258
-367 -639 -353 -1066 3 -88 11 -188 18 -222 12 -61 12 -62 -19 -110 -47 -73
-130 -149 -196 -179 -50 -23 -68 -26 -126 -22 -82 6 -130 33 -156 86 -26 54
-30 190 -10 304 9 51 43 305 76 563 33 259 77 602 98 762 l38 293 -31 10 c-33
11 -195 31 -235 29 -14 -1 -53 -5 -87 -10z m2322 -419 c39 -12 74 -25 78 -29
4 -5 -19 -257 -53 -562 -57 -516 -63 -559 -91 -629 -69 -174 -173 -301 -295
-361 -65 -32 -75 -34 -174 -34 -97 0 -110 2 -171 31 -125 60 -221 192 -255
354 -21 97 -14 305 16 480 69 400 241 656 499 743 108 37 103 36 246 33 101
-3 146 -8 200 -26z"/>
</g>
</svg>
